<svg xmlns="http://www.w3.org/2000/svg" viewBox="0 0 32 36" width="512" height="576" shape-rendering="crispEdges">
<rect x="9" y="1" width="14" height="1" fill="#04170b"/>
<rect x="8" y="2" width="1" height="1" fill="#04170b"/>
<rect x="9" y="2" width="14" height="1" fill="#00e63a"/>
<rect x="23" y="2" width="1" height="1" fill="#04170b"/>
<rect x="7" y="3" width="1" height="1" fill="#04170b"/>
<rect x="8" y="3" width="16" height="1" fill="#00e63a"/>
<rect x="24" y="3" width="1" height="1" fill="#04170b"/>
<rect x="6" y="4" width="1" height="1" fill="#04170b"/>
<rect x="7" y="4" width="4" height="1" fill="#00e63a"/>
<rect x="11" y="4" width="10" height="1" fill="#04170b"/>
<rect x="21" y="4" width="4" height="1" fill="#00e63a"/>
<rect x="25" y="4" width="1" height="1" fill="#04170b"/>
<rect x="5" y="5" width="1" height="1" fill="#04170b"/>
<rect x="6" y="5" width="4" height="1" fill="#00e63a"/>
<rect x="10" y="5" width="1" height="1" fill="#04170b"/>
<rect x="11" y="5" width="3" height="1" fill="#06170c"/>
<rect x="14" y="5" width="4" height="1" fill="#00a82a"/>
<rect x="18" y="5" width="3" height="1" fill="#06170c"/>
<rect x="21" y="5" width="1" height="1" fill="#04170b"/>
<rect x="22" y="5" width="4" height="1" fill="#00e63a"/>
<rect x="26" y="5" width="1" height="1" fill="#04170b"/>
<rect x="4" y="6" width="1" height="1" fill="#b400ff"/>
<rect x="5" y="6" width="1" height="1" fill="#04170b"/>
<rect x="6" y="6" width="3" height="1" fill="#00e63a"/>
<rect x="9" y="6" width="1" height="1" fill="#04170b"/>
<rect x="10" y="6" width="12" height="1" fill="#06170c"/>
<rect x="22" y="6" width="1" height="1" fill="#04170b"/>
<rect x="23" y="6" width="3" height="1" fill="#00e63a"/>
<rect x="26" y="6" width="1" height="1" fill="#04170b"/>
<rect x="27" y="6" width="1" height="1" fill="#b400ff"/>
<rect x="4" y="7" width="1" height="1" fill="#b400ff"/>
<rect x="5" y="7" width="1" height="1" fill="#04170b"/>
<rect x="6" y="7" width="2" height="1" fill="#00e63a"/>
<rect x="8" y="7" width="1" height="1" fill="#04170b"/>
<rect x="9" y="7" width="14" height="1" fill="#06170c"/>
<rect x="23" y="7" width="1" height="1" fill="#04170b"/>
<rect x="24" y="7" width="2" height="1" fill="#00e63a"/>
<rect x="26" y="7" width="1" height="1" fill="#04170b"/>
<rect x="27" y="7" width="1" height="1" fill="#b400ff"/>
<rect x="4" y="8" width="1" height="1" fill="#b400ff"/>
<rect x="5" y="8" width="1" height="1" fill="#04170b"/>
<rect x="6" y="8" width="2" height="1" fill="#00e63a"/>
<rect x="8" y="8" width="1" height="1" fill="#04170b"/>
<rect x="9" y="8" width="2" height="1" fill="#06170c"/>
<rect x="11" y="8" width="1" height="1" fill="#ffffff"/>
<rect x="12" y="8" width="3" height="1" fill="#c9ffd8"/>
<rect x="15" y="8" width="2" height="1" fill="#06170c"/>
<rect x="17" y="8" width="1" height="1" fill="#ffffff"/>
<rect x="18" y="8" width="3" height="1" fill="#c9ffd8"/>
<rect x="21" y="8" width="2" height="1" fill="#06170c"/>
<rect x="23" y="8" width="1" height="1" fill="#04170b"/>
<rect x="24" y="8" width="2" height="1" fill="#00e63a"/>
<rect x="26" y="8" width="1" height="1" fill="#04170b"/>
<rect x="27" y="8" width="1" height="1" fill="#b400ff"/>
<rect x="5" y="9" width="1" height="1" fill="#04170b"/>
<rect x="6" y="9" width="2" height="1" fill="#00e63a"/>
<rect x="8" y="9" width="1" height="1" fill="#04170b"/>
<rect x="9" y="9" width="2" height="1" fill="#06170c"/>
<rect x="11" y="9" width="4" height="1" fill="#c9ffd8"/>
<rect x="15" y="9" width="2" height="1" fill="#06170c"/>
<rect x="17" y="9" width="4" height="1" fill="#c9ffd8"/>
<rect x="21" y="9" width="2" height="1" fill="#06170c"/>
<rect x="23" y="9" width="1" height="1" fill="#04170b"/>
<rect x="24" y="9" width="2" height="1" fill="#00e63a"/>
<rect x="26" y="9" width="1" height="1" fill="#04170b"/>
<rect x="4" y="10" width="1" height="1" fill="#00f5ff"/>
<rect x="5" y="10" width="1" height="1" fill="#04170b"/>
<rect x="6" y="10" width="2" height="1" fill="#00e63a"/>
<rect x="8" y="10" width="1" height="1" fill="#04170b"/>
<rect x="9" y="10" width="2" height="1" fill="#06170c"/>
<rect x="11" y="10" width="4" height="1" fill="#c9ffd8"/>
<rect x="15" y="10" width="2" height="1" fill="#06170c"/>
<rect x="17" y="10" width="4" height="1" fill="#c9ffd8"/>
<rect x="21" y="10" width="2" height="1" fill="#06170c"/>
<rect x="23" y="10" width="1" height="1" fill="#04170b"/>
<rect x="24" y="10" width="2" height="1" fill="#00e63a"/>
<rect x="26" y="10" width="1" height="1" fill="#04170b"/>
<rect x="27" y="10" width="1" height="1" fill="#00f5ff"/>
<rect x="4" y="11" width="1" height="1" fill="#00f5ff"/>
<rect x="5" y="11" width="1" height="1" fill="#04170b"/>
<rect x="6" y="11" width="2" height="1" fill="#00e63a"/>
<rect x="8" y="11" width="1" height="1" fill="#04170b"/>
<rect x="9" y="11" width="14" height="1" fill="#06170c"/>
<rect x="23" y="11" width="1" height="1" fill="#04170b"/>
<rect x="24" y="11" width="2" height="1" fill="#00e63a"/>
<rect x="26" y="11" width="1" height="1" fill="#04170b"/>
<rect x="27" y="11" width="1" height="1" fill="#00f5ff"/>
<rect x="5" y="12" width="1" height="1" fill="#04170b"/>
<rect x="6" y="12" width="3" height="1" fill="#00e63a"/>
<rect x="9" y="12" width="1" height="1" fill="#04170b"/>
<rect x="10" y="12" width="2" height="1" fill="#06170c"/>
<rect x="12" y="12" width="1" height="1" fill="#c9ffd8"/>
<rect x="13" y="12" width="6" height="1" fill="#06170c"/>
<rect x="19" y="12" width="1" height="1" fill="#c9ffd8"/>
<rect x="20" y="12" width="2" height="1" fill="#06170c"/>
<rect x="22" y="12" width="1" height="1" fill="#04170b"/>
<rect x="23" y="12" width="3" height="1" fill="#00e63a"/>
<rect x="26" y="12" width="1" height="1" fill="#04170b"/>
<rect x="6" y="13" width="1" height="1" fill="#04170b"/>
<rect x="7" y="13" width="3" height="1" fill="#00e63a"/>
<rect x="10" y="13" width="1" height="1" fill="#04170b"/>
<rect x="11" y="13" width="2" height="1" fill="#06170c"/>
<rect x="13" y="13" width="6" height="1" fill="#c9ffd8"/>
<rect x="19" y="13" width="2" height="1" fill="#06170c"/>
<rect x="21" y="13" width="1" height="1" fill="#04170b"/>
<rect x="22" y="13" width="3" height="1" fill="#00e63a"/>
<rect x="25" y="13" width="1" height="1" fill="#04170b"/>
<rect x="7" y="14" width="1" height="1" fill="#04170b"/>
<rect x="8" y="14" width="3" height="1" fill="#00e63a"/>
<rect x="11" y="14" width="10" height="1" fill="#04170b"/>
<rect x="21" y="14" width="3" height="1" fill="#00e63a"/>
<rect x="24" y="14" width="1" height="1" fill="#04170b"/>
<rect x="8" y="15" width="1" height="1" fill="#04170b"/>
<rect x="9" y="15" width="14" height="1" fill="#00e63a"/>
<rect x="23" y="15" width="1" height="1" fill="#04170b"/>
<rect x="9" y="16" width="14" height="1" fill="#04170b"/>
<rect x="11" y="17" width="10" height="1" fill="#b400ff"/>
<rect x="5" y="18" width="3" height="1" fill="#04170b"/>
<rect x="10" y="18" width="12" height="1" fill="#04170b"/>
<rect x="24" y="18" width="3" height="1" fill="#04170b"/>
<rect x="4" y="19" width="1" height="1" fill="#04170b"/>
<rect x="5" y="19" width="3" height="1" fill="#00e63a"/>
<rect x="8" y="19" width="2" height="1" fill="#04170b"/>
<rect x="10" y="19" width="12" height="1" fill="#00e63a"/>
<rect x="22" y="19" width="2" height="1" fill="#04170b"/>
<rect x="24" y="19" width="3" height="1" fill="#00e63a"/>
<rect x="27" y="19" width="1" height="1" fill="#04170b"/>
<rect x="4" y="20" width="1" height="1" fill="#04170b"/>
<rect x="5" y="20" width="3" height="1" fill="#00e63a"/>
<rect x="8" y="20" width="1" height="1" fill="#00a82a"/>
<rect x="9" y="20" width="3" height="1" fill="#00e63a"/>
<rect x="12" y="20" width="8" height="1" fill="#04170b"/>
<rect x="20" y="20" width="3" height="1" fill="#00e63a"/>
<rect x="23" y="20" width="1" height="1" fill="#00a82a"/>
<rect x="24" y="20" width="3" height="1" fill="#00e63a"/>
<rect x="27" y="20" width="1" height="1" fill="#04170b"/>
<rect x="4" y="21" width="1" height="1" fill="#04170b"/>
<rect x="5" y="21" width="3" height="1" fill="#00e63a"/>
<rect x="8" y="21" width="1" height="1" fill="#00a82a"/>
<rect x="9" y="21" width="2" height="1" fill="#00e63a"/>
<rect x="11" y="21" width="1" height="1" fill="#04170b"/>
<rect x="12" y="21" width="3" height="1" fill="#b400ff"/>
<rect x="15" y="21" width="2" height="1" fill="#06170c"/>
<rect x="17" y="21" width="3" height="1" fill="#00f5ff"/>
<rect x="20" y="21" width="1" height="1" fill="#04170b"/>
<rect x="21" y="21" width="2" height="1" fill="#00e63a"/>
<rect x="23" y="21" width="1" height="1" fill="#00a82a"/>
<rect x="24" y="21" width="3" height="1" fill="#00e63a"/>
<rect x="27" y="21" width="1" height="1" fill="#04170b"/>
<rect x="4" y="22" width="1" height="1" fill="#04170b"/>
<rect x="5" y="22" width="3" height="1" fill="#00e63a"/>
<rect x="8" y="22" width="1" height="1" fill="#00a82a"/>
<rect x="9" y="22" width="2" height="1" fill="#00e63a"/>
<rect x="11" y="22" width="1" height="1" fill="#04170b"/>
<rect x="12" y="22" width="1" height="1" fill="#b400ff"/>
<rect x="13" y="22" width="1" height="1" fill="#06170c"/>
<rect x="14" y="22" width="1" height="1" fill="#b400ff"/>
<rect x="15" y="22" width="2" height="1" fill="#06170c"/>
<rect x="17" y="22" width="1" height="1" fill="#00f5ff"/>
<rect x="18" y="22" width="1" height="1" fill="#06170c"/>
<rect x="19" y="22" width="1" height="1" fill="#00f5ff"/>
<rect x="20" y="22" width="1" height="1" fill="#04170b"/>
<rect x="21" y="22" width="2" height="1" fill="#00e63a"/>
<rect x="23" y="22" width="1" height="1" fill="#00a82a"/>
<rect x="24" y="22" width="3" height="1" fill="#00e63a"/>
<rect x="27" y="22" width="1" height="1" fill="#04170b"/>
<rect x="4" y="23" width="1" height="1" fill="#04170b"/>
<rect x="5" y="23" width="3" height="1" fill="#00e63a"/>
<rect x="8" y="23" width="1" height="1" fill="#00a82a"/>
<rect x="9" y="23" width="2" height="1" fill="#00e63a"/>
<rect x="11" y="23" width="1" height="1" fill="#04170b"/>
<rect x="12" y="23" width="3" height="1" fill="#b400ff"/>
<rect x="15" y="23" width="2" height="1" fill="#06170c"/>
<rect x="17" y="23" width="3" height="1" fill="#00f5ff"/>
<rect x="20" y="23" width="1" height="1" fill="#04170b"/>
<rect x="21" y="23" width="2" height="1" fill="#00e63a"/>
<rect x="23" y="23" width="1" height="1" fill="#00a82a"/>
<rect x="24" y="23" width="3" height="1" fill="#00e63a"/>
<rect x="27" y="23" width="1" height="1" fill="#04170b"/>
<rect x="5" y="24" width="4" height="1" fill="#04170b"/>
<rect x="9" y="24" width="3" height="1" fill="#00e63a"/>
<rect x="12" y="24" width="8" height="1" fill="#04170b"/>
<rect x="20" y="24" width="3" height="1" fill="#00e63a"/>
<rect x="23" y="24" width="4" height="1" fill="#04170b"/>
<rect x="4" y="25" width="1" height="1" fill="#04170b"/>
<rect x="5" y="25" width="3" height="1" fill="#00e63a"/>
<rect x="8" y="25" width="2" height="1" fill="#04170b"/>
<rect x="10" y="25" width="12" height="1" fill="#00e63a"/>
<rect x="22" y="25" width="2" height="1" fill="#04170b"/>
<rect x="24" y="25" width="3" height="1" fill="#00e63a"/>
<rect x="27" y="25" width="1" height="1" fill="#04170b"/>
<rect x="5" y="26" width="3" height="1" fill="#04170b"/>
<rect x="10" y="26" width="12" height="1" fill="#04170b"/>
<rect x="24" y="26" width="3" height="1" fill="#04170b"/>
<rect x="11" y="27" width="3" height="1" fill="#00e63a"/>
<rect x="18" y="27" width="3" height="1" fill="#00e63a"/>
<rect x="9" y="28" width="6" height="1" fill="#04170b"/>
<rect x="17" y="28" width="6" height="1" fill="#04170b"/>
<rect x="9" y="29" width="1" height="1" fill="#04170b"/>
<rect x="10" y="29" width="4" height="1" fill="#00e63a"/>
<rect x="14" y="29" width="1" height="1" fill="#04170b"/>
<rect x="17" y="29" width="1" height="1" fill="#04170b"/>
<rect x="18" y="29" width="4" height="1" fill="#00e63a"/>
<rect x="22" y="29" width="1" height="1" fill="#04170b"/>
<rect x="9" y="30" width="6" height="1" fill="#04170b"/>
<rect x="17" y="30" width="6" height="1" fill="#04170b"/>
<rect x="6" y="31" width="20" height="1" fill="#b400ff"/>
<rect x="5" y="32" width="1" height="1" fill="#b400ff"/>
<rect x="6" y="32" width="2" height="1" fill="#06170c"/>
<rect x="8" y="32" width="16" height="1" fill="#00f5ff"/>
<rect x="24" y="32" width="2" height="1" fill="#06170c"/>
<rect x="26" y="32" width="1" height="1" fill="#b400ff"/>
<rect x="6" y="33" width="20" height="1" fill="#b400ff"/>
<rect x="9" y="34" width="2" height="1" fill="#b400ff"/>
<rect x="21" y="34" width="2" height="1" fill="#b400ff"/>
</svg>
